<svg xmlns="http://www.w3.org/2000/svg" viewBox="0 0 1200 600" class="h-auto max-h-96 w-full" preserveAspectRatio="xMidYMid meet"><defs><linearGradient id="waveGradient0" x1="0%" y1="0%" x2="100%" y2="100%"><stop offset="0%" stop-color="#4F46E5" stop-opacity="0.6"/><stop offset="100%" stop-color="#8B5CF6" stop-opacity="0.42"/></linearGradient><linearGradient id="waveGradient1" x1="0%" y1="0%" x2="100%" y2="100%"><stop offset="0%" stop-color="#4F46E5" stop-opacity="0.5"/><stop offset="100%" stop-color="#8B5CF6" stop-opacity="0.35"/></linearGradient><linearGradient id="waveGradient2" x1="0%" y1="0%" x2="100%" y2="100%"><stop offset="0%" stop-color="#4F46E5" stop-opacity="0.39999999999999997"/><stop offset="100%" stop-color="#8B5CF6" stop-opacity="0.27999999999999997"/></linearGradient><linearGradient id="rainbowGradient" x1="0%" y1="0%" x2="100%" y2="0%"><stop offset="0%" stop-color="#FF6B6B"/><stop offset="16.66%" stop-color="#4ECDC4"/><stop offset="33.33%" stop-color="#45B7D1"/><stop offset="50%" stop-color="#96CEB4"/><stop offset="66.66%" stop-color="#FFEAA7"/><stop offset="83.33%" stop-color="#DDA0DD"/><stop offset="100%" stop-color="#FF6B6B"/></linearGradient></defs><path d="M 0.00 420.00 L 6.00 412.78 L 12.00 405.67 L 18.00 398.78 L 24.00 392.20 L 30.00 386.03 L 36.00 380.35 L 42.00 375.24 L 48.00 370.76 L 54.00 366.99 L 60.00 363.98 L 66.00 361.79 L 72.00 360.46 L 78.00 360.04 L 84.00 360.54 L 90.00 362.00 L 96.00 364.40 L 102.00 367.73 L 108.00 371.97 L 114.00 377.05 L 120.00 382.91 L 126.00 389.45 L 132.00 396.56 L 138.00 404.12 L 144.00 411.98 L 150.00 420.00 L 156.00 428.02 L 162.00 435.88 L 168.00 443.44 L 174.00 450.55 L 180.00 457.09 L 186.00 462.95 L 192.00 468.03 L 198.00 472.27 L 204.00 475.60 L 210.00 478.00 L 216.00 479.46 L 222.00 479.96 L 228.00 479.54 L 234.00 478.21 L 240.00 476.02 L 246.00 473.01 L 252.00 469.24 L 258.00 464.76 L 264.00 459.65 L 270.00 453.97 L 276.00 447.80 L 282.00 441.22 L 288.00 434.33 L 294.00 427.22 L 300.00 420.00 L 306.00 412.78 L 312.00 405.68 L 318.00 398.81 L 324.00 392.30 L 330.00 386.25 L 336.00 380.79 L 342.00 376.00 L 348.00 371.97 L 354.00 368.77 L 360.00 366.46 L 366.00 365.05 L 372.00 364.56 L 378.00 364.99 L 384.00 366.30 L 390.00 368.44 L 396.00 371.37 L 402.00 375.00 L 408.00 379.27 L 414.00 384.09 L 420.00 389.38 L 426.00 395.05 L 432.00 401.03 L 438.00 407.23 L 444.00 413.58 L 450.00 420.00 L 456.00 426.42 L 462.00 432.77 L 468.00 438.97 L 474.00 444.95 L 480.00 450.62 L 486.00 455.91 L 492.00 460.73 L 498.00 465.00 L 504.00 468.63 L 510.00 471.56 L 516.00 473.70 L 522.00 475.01 L 528.00 475.44 L 534.00 474.95 L 540.00 473.54 L 546.00 471.23 L 552.00 468.03 L 558.00 464.00 L 564.00 459.21 L 570.00 453.75 L 576.00 447.70 L 582.00 441.19 L 588.00 434.32 L 594.00 427.22 L 600.00 420.00 L 606.00 412.78 L 612.00 405.67 L 618.00 398.78 L 624.00 392.20 L 630.00 386.03 L 636.00 380.35 L 642.00 375.24 L 648.00 370.76 L 654.00 366.99 L 660.00 363.98 L 666.00 361.79 L 672.00 360.46 L 678.00 360.04 L 684.00 360.54 L 690.00 362.00 L 696.00 364.40 L 702.00 367.73 L 708.00 371.97 L 714.00 377.05 L 720.00 382.91 L 726.00 389.45 L 732.00 396.56 L 738.00 404.12 L 744.00 411.98 L 750.00 420.00 L 756.00 428.02 L 762.00 435.88 L 768.00 443.44 L 774.00 450.55 L 780.00 457.09 L 786.00 462.95 L 792.00 468.03 L 798.00 472.27 L 804.00 475.60 L 810.00 478.00 L 816.00 479.46 L 822.00 479.96 L 828.00 479.54 L 834.00 478.21 L 840.00 476.02 L 846.00 473.01 L 852.00 469.24 L 858.00 464.76 L 864.00 459.65 L 870.00 453.97 L 876.00 447.80 L 882.00 441.22 L 888.00 434.33 L 894.00 427.22 L 900.00 420.00 L 906.00 412.78 L 912.00 405.68 L 918.00 398.81 L 924.00 392.30 L 930.00 386.25 L 936.00 380.79 L 942.00 376.00 L 948.00 371.97 L 954.00 368.77 L 960.00 366.46 L 966.00 365.05 L 972.00 364.56 L 978.00 364.99 L 984.00 366.30 L 990.00 368.44 L 996.00 371.37 L 1002.00 375.00 L 1008.00 379.27 L 1014.00 384.09 L 1020.00 389.38 L 1026.00 395.05 L 1032.00 401.03 L 1038.00 407.23 L 1044.00 413.58 L 1050.00 420.00 L 1056.00 426.42 L 1062.00 432.77 L 1068.00 438.97 L 1074.00 444.95 L 1080.00 450.62 L 1086.00 455.91 L 1092.00 460.73 L 1098.00 465.00 L 1104.00 468.63 L 1110.00 471.56 L 1116.00 473.70 L 1122.00 475.01 L 1128.00 475.44 L 1134.00 474.95 L 1140.00 473.54 L 1146.00 471.23 L 1152.00 468.03 L 1158.00 464.00 L 1164.00 459.21 L 1170.00 453.75 L 1176.00 447.70 L 1182.00 441.19 L 1188.00 434.32 L 1194.00 427.22 L 1200.00 420.00 L 1200.00 600.00 L 0.00 600.00 Z" fill="url(#waveGradient0)" fill-opacity="0.6" transform="" class="" style="transition:all 0.3s ease;filter:blur(0px)"/><path d="M 0.00 372.00 L 6.00 365.50 L 12.00 359.11 L 18.00 352.90 L 24.00 346.98 L 30.00 341.43 L 36.00 336.32 L 42.00 331.71 L 48.00 327.69 L 54.00 324.29 L 60.00 321.58 L 66.00 319.61 L 72.00 318.42 L 78.00 318.04 L 84.00 318.49 L 90.00 319.80 L 96.00 321.96 L 102.00 324.96 L 108.00 328.77 L 114.00 333.34 L 120.00 338.62 L 126.00 344.50 L 132.00 350.91 L 138.00 357.71 L 144.00 364.79 L 150.00 372.00 L 156.00 379.21 L 162.00 386.29 L 168.00 393.09 L 174.00 399.50 L 180.00 405.38 L 186.00 410.66 L 192.00 415.23 L 198.00 419.04 L 204.00 422.04 L 210.00 424.20 L 216.00 425.51 L 222.00 425.96 L 228.00 425.58 L 234.00 424.39 L 240.00 422.42 L 246.00 419.71 L 252.00 416.31 L 258.00 412.29 L 264.00 407.68 L 270.00 402.57 L 276.00 397.02 L 282.00 391.10 L 288.00 384.89 L 294.00 378.50 L 300.00 372.00 L 306.00 365.50 L 312.00 359.11 L 318.00 352.93 L 324.00 347.07 L 330.00 341.63 L 336.00 336.71 L 342.00 332.40 L 348.00 328.77 L 354.00 325.90 L 360.00 323.81 L 366.00 322.54 L 372.00 322.11 L 378.00 322.49 L 384.00 323.67 L 390.00 325.60 L 396.00 328.23 L 402.00 331.50 L 408.00 335.34 L 414.00 339.68 L 420.00 344.44 L 426.00 349.55 L 432.00 354.93 L 438.00 360.51 L 444.00 366.22 L 450.00 372.00 L 456.00 377.78 L 462.00 383.49 L 468.00 389.07 L 474.00 394.45 L 480.00 399.56 L 486.00 404.32 L 492.00 408.66 L 498.00 412.50 L 504.00 415.77 L 510.00 418.40 L 516.00 420.33 L 522.00 421.51 L 528.00 421.89 L 534.00 421.46 L 540.00 420.19 L 546.00 418.10 L 552.00 415.23 L 558.00 411.60 L 564.00 407.29 L 570.00 402.37 L 576.00 396.93 L 582.00 391.07 L 588.00 384.89 L 594.00 378.50 L 600.00 372.00 L 606.00 365.50 L 612.00 359.11 L 618.00 352.90 L 624.00 346.98 L 630.00 341.43 L 636.00 336.32 L 642.00 331.71 L 648.00 327.69 L 654.00 324.29 L 660.00 321.58 L 666.00 319.61 L 672.00 318.42 L 678.00 318.04 L 684.00 318.49 L 690.00 319.80 L 696.00 321.96 L 702.00 324.96 L 708.00 328.77 L 714.00 333.34 L 720.00 338.62 L 726.00 344.50 L 732.00 350.91 L 738.00 357.71 L 744.00 364.79 L 750.00 372.00 L 756.00 379.21 L 762.00 386.29 L 768.00 393.09 L 774.00 399.50 L 780.00 405.38 L 786.00 410.66 L 792.00 415.23 L 798.00 419.04 L 804.00 422.04 L 810.00 424.20 L 816.00 425.51 L 822.00 425.96 L 828.00 425.58 L 834.00 424.39 L 840.00 422.42 L 846.00 419.71 L 852.00 416.31 L 858.00 412.29 L 864.00 407.68 L 870.00 402.57 L 876.00 397.02 L 882.00 391.10 L 888.00 384.89 L 894.00 378.50 L 900.00 372.00 L 906.00 365.50 L 912.00 359.11 L 918.00 352.93 L 924.00 347.07 L 930.00 341.63 L 936.00 336.71 L 942.00 332.40 L 948.00 328.77 L 954.00 325.90 L 960.00 323.81 L 966.00 322.54 L 972.00 322.11 L 978.00 322.49 L 984.00 323.67 L 990.00 325.60 L 996.00 328.23 L 1002.00 331.50 L 1008.00 335.34 L 1014.00 339.68 L 1020.00 344.44 L 1026.00 349.55 L 1032.00 354.93 L 1038.00 360.51 L 1044.00 366.22 L 1050.00 372.00 L 1056.00 377.78 L 1062.00 383.49 L 1068.00 389.07 L 1074.00 394.45 L 1080.00 399.56 L 1086.00 404.32 L 1092.00 408.66 L 1098.00 412.50 L 1104.00 415.77 L 1110.00 418.40 L 1116.00 420.33 L 1122.00 421.51 L 1128.00 421.89 L 1134.00 421.46 L 1140.00 420.19 L 1146.00 418.10 L 1152.00 415.23 L 1158.00 411.60 L 1164.00 407.29 L 1170.00 402.37 L 1176.00 396.93 L 1182.00 391.07 L 1188.00 384.89 L 1194.00 378.50 L 1200.00 372.00 L 1200.00 600.00 L 0.00 600.00 Z" fill="url(#waveGradient1)" fill-opacity="0.44999999999999996" transform="" class="" style="transition:all 0.3s ease;filter:blur(0.5px)"/><path d="M 0.00 324.00 L 6.00 318.22 L 12.00 312.54 L 18.00 307.02 L 24.00 301.76 L 30.00 296.83 L 36.00 292.28 L 42.00 288.19 L 48.00 284.61 L 54.00 281.59 L 60.00 279.19 L 66.00 277.43 L 72.00 276.37 L 78.00 276.03 L 84.00 276.44 L 90.00 277.60 L 96.00 279.52 L 102.00 282.18 L 108.00 285.57 L 114.00 289.64 L 120.00 294.33 L 126.00 299.56 L 132.00 305.25 L 138.00 311.30 L 144.00 317.59 L 150.00 324.00 L 156.00 330.41 L 162.00 336.70 L 168.00 342.75 L 174.00 348.44 L 180.00 353.67 L 186.00 358.36 L 192.00 362.43 L 198.00 365.82 L 204.00 368.48 L 210.00 370.40 L 216.00 371.56 L 222.00 371.97 L 228.00 371.63 L 234.00 370.57 L 240.00 368.81 L 246.00 366.41 L 252.00 363.39 L 258.00 359.81 L 264.00 355.72 L 270.00 351.17 L 276.00 346.24 L 282.00 340.98 L 288.00 335.46 L 294.00 329.78 L 300.00 324.00 L 306.00 318.22 L 312.00 312.54 L 318.00 307.05 L 324.00 301.84 L 330.00 297.00 L 336.00 292.63 L 342.00 288.80 L 348.00 285.58 L 354.00 283.02 L 360.00 281.16 L 366.00 280.04 L 372.00 279.65 L 378.00 279.99 L 384.00 281.04 L 390.00 282.75 L 396.00 285.09 L 402.00 288.00 L 408.00 291.42 L 414.00 295.27 L 420.00 299.50 L 426.00 304.04 L 432.00 308.82 L 438.00 313.78 L 444.00 318.86 L 450.00 324.00 L 456.00 329.14 L 462.00 334.22 L 468.00 339.18 L 474.00 343.96 L 480.00 348.50 L 486.00 352.73 L 492.00 356.58 L 498.00 360.00 L 504.00 362.91 L 510.00 365.25 L 516.00 366.96 L 522.00 368.01 L 528.00 368.35 L 534.00 367.96 L 540.00 366.84 L 546.00 364.98 L 552.00 362.42 L 558.00 359.20 L 564.00 355.37 L 570.00 351.00 L 576.00 346.16 L 582.00 340.95 L 588.00 335.46 L 594.00 329.78 L 600.00 324.00 L 606.00 318.22 L 612.00 312.54 L 618.00 307.02 L 624.00 301.76 L 630.00 296.83 L 636.00 292.28 L 642.00 288.19 L 648.00 284.61 L 654.00 281.59 L 660.00 279.19 L 666.00 277.43 L 672.00 276.37 L 678.00 276.03 L 684.00 276.44 L 690.00 277.60 L 696.00 279.52 L 702.00 282.18 L 708.00 285.57 L 714.00 289.64 L 720.00 294.33 L 726.00 299.56 L 732.00 305.25 L 738.00 311.30 L 744.00 317.59 L 750.00 324.00 L 756.00 330.41 L 762.00 336.70 L 768.00 342.75 L 774.00 348.44 L 780.00 353.67 L 786.00 358.36 L 792.00 362.43 L 798.00 365.82 L 804.00 368.48 L 810.00 370.40 L 816.00 371.56 L 822.00 371.97 L 828.00 371.63 L 834.00 370.57 L 840.00 368.81 L 846.00 366.41 L 852.00 363.39 L 858.00 359.81 L 864.00 355.72 L 870.00 351.17 L 876.00 346.24 L 882.00 340.98 L 888.00 335.46 L 894.00 329.78 L 900.00 324.00 L 906.00 318.22 L 912.00 312.54 L 918.00 307.05 L 924.00 301.84 L 930.00 297.00 L 936.00 292.63 L 942.00 288.80 L 948.00 285.58 L 954.00 283.02 L 960.00 281.16 L 966.00 280.04 L 972.00 279.65 L 978.00 279.99 L 984.00 281.04 L 990.00 282.75 L 996.00 285.09 L 1002.00 288.00 L 1008.00 291.42 L 1014.00 295.27 L 1020.00 299.50 L 1026.00 304.04 L 1032.00 308.82 L 1038.00 313.78 L 1044.00 318.86 L 1050.00 324.00 L 1056.00 329.14 L 1062.00 334.22 L 1068.00 339.18 L 1074.00 343.96 L 1080.00 348.50 L 1086.00 352.73 L 1092.00 356.58 L 1098.00 360.00 L 1104.00 362.91 L 1110.00 365.25 L 1116.00 366.96 L 1122.00 368.01 L 1128.00 368.35 L 1134.00 367.96 L 1140.00 366.84 L 1146.00 364.98 L 1152.00 362.42 L 1158.00 359.20 L 1164.00 355.37 L 1170.00 351.00 L 1176.00 346.16 L 1182.00 340.95 L 1188.00 335.46 L 1194.00 329.78 L 1200.00 324.00 L 1200.00 600.00 L 0.00 600.00 Z" fill="url(#waveGradient2)" fill-opacity="0.3" transform="" class="" style="transition: 0.3s; filter: blur(1px);"/></svg>